<?xml version="1.0" encoding="UTF-8" standalone="no"?>
<!-- Created with Inkscape (http://www.inkscape.org/) -->

<svg
   version="1.1"
   id="svg1"
   width="682.22668"
   height="75.58667"
   viewBox="0 0 682.22668 75.58667"
   sodipodi:docname="DASHH_Logo_A_CMYK.eps"
   xmlns:inkscape="http://www.inkscape.org/namespaces/inkscape"
   xmlns:sodipodi="http://sodipodi.sourceforge.net/DTD/sodipodi-0.dtd"
   xmlns="http://www.w3.org/2000/svg"
   xmlns:svg="http://www.w3.org/2000/svg">
  <defs
     id="defs1">
    <linearGradient
       x1="0"
       y1="0"
       x2="1"
       y2="0"
       gradientUnits="userSpaceOnUse"
       gradientTransform="matrix(2053.22,1185.43,1185.43,-2053.22,311.986,-301.785)"
       spreadMethod="pad"
       id="linearGradient9">
      <stop
         style="stop-opacity:1;stop-color:#4dc4ce"
         offset="0"
         id="stop2" />
      <stop
         style="stop-opacity:1;stop-color:#00adef"
         offset="0.25"
         id="stop3" />
      <stop
         style="stop-opacity:1;stop-color:#00adef"
         offset="0.31575922"
         id="stop4" />
      <stop
         style="stop-opacity:1;stop-color:#21317d"
         offset="0.5"
         id="stop5" />
      <stop
         style="stop-opacity:1;stop-color:#21317d"
         offset="0.52750144"
         id="stop6" />
      <stop
         style="stop-opacity:1;stop-color:#b41570"
         offset="0.7"
         id="stop7" />
      <stop
         style="stop-opacity:1;stop-color:#ed1c24"
         offset="0.948967"
         id="stop8" />
      <stop
         style="stop-opacity:1;stop-color:#ed1c24"
         offset="1"
         id="stop9" />
    </linearGradient>
    <clipPath
       clipPathUnits="userSpaceOnUse"
       id="clipPath9">
      <path
         d="m 488.441,484.203 -55.707,55.676 c -17.492,17.508 -39.777,27.051 -63.629,27.051 H 216.367 V 458.742 h 137.629 c 4.774,0 9.539,-2.398 12.723,-5.562 l 35.023,-35.012 c 3.164,-3.176 4.754,-7.957 4.754,-12.723 V 163.609 c 0,-4.777 -1.59,-8.75 -4.754,-12.734 l -35.023,-34.191 c -3.184,-3.993 -7.949,-5.575 -12.723,-5.575 H 216.367 V 458.742 H 108.184 V 56.2031 c 0,-4.7617 1.593,-9.5273 5.566,-12.7226 l 35,-34.98831 c 3.188,-3.9961 7.941,-5.57813 12.723,-5.57813 h 207.632 c 23.872,0 46.653,9.02344 63.657,26.24224 l 55.679,56.5039 c 16.579,16.8048 26.247,39.7538 26.247,63.6208 v 271.27 c 0,23.867 -9.551,46.945 -26.247,63.652 z M 2656.25,111.02 H 2548.07 V 2.83594 h 108.18 z M 2439.89,566.93 V 338.617 H 2246.58 V 566.93 H 2138.39 V 2.91406 h 108.19 V 230.426 h 193.31 V 111.02 h 108.18 v 455.91 z m -2331.706,0 H 0 V 458.742 H 108.184 Z M 1932.35,338.617 V 566.93 h 108.19 V 2.91406 H 1932.35 V 230.426 H 1739.03 V 2.91406 H 1630.84 V 566.93 h 108.19 V 338.617 Z M 1397.27,2.85547 h -158.79 c -24.1,0 -46.75,9.36723 -63.79,26.40623 l -63.39,63.418 76.5,76.4843 52.85,-52.84 c 3.38,-3.371 7.99,-5.285 12.77,-5.285 h 128.91 c 4.79,0 9.38,1.914 12.77,5.285 l 34.78,34.793 c 3.39,3.399 5.28,7.981 5.28,12.774 v 18.722 c 0,8.075 -5.44,15.242 -13.2,17.403 l -234.11,65.195 c -26.42,7.332 -50.1,23.426 -66.68,45.254 -16.57,21.836 -25.72,48.953 -25.72,76.363 v 33.676 c 0,23.902 9.51,46.855 26.42,63.769 l 55.91,55.926 c 17.04,17.024 39.68,26.387 63.78,26.387 h 158.79 c 24.09,0 46.74,-9.363 63.76,-26.387 l 63.41,-63.437 -76.51,-76.492 -52.84,52.847 c -3.38,3.379 -7.98,5.278 -12.76,5.278 H 1256.5 c -4.81,0 -9.4,-1.899 -12.77,-5.278 l -34.8,-34.793 c -3.38,-3.386 -5.28,-7.988 -5.28,-12.754 v -18.742 c 0,-8.074 5.44,-15.223 13.22,-17.398 l 234.09,-65.176 c 26.42,-7.356 50.11,-23.418 66.68,-45.266 16.61,-21.836 25.71,-48.953 25.71,-76.375 v -33.664 c 0,-24.09 -9.36,-46.738 -26.41,-63.7771 L 1461.03,29.2617 C 1443.99,12.2227 1421.36,2.85547 1397.27,2.85547 Z M 727.098,220.895 H 859.961 L 793.129,411.012 Z M 688.914,112.691 649.93,2.91406 H 535.379 L 729.48,554.203 c 2.379,7.961 8.754,12.727 16.704,12.727 h 94.675 c 7.157,0 14.325,-4.766 16.707,-11.926 L 1051.66,2.91406 H 937.125 L 898.133,112.691 Z"
         id="path9" />
    </clipPath>
  </defs>
  <sodipodi:namedview
     id="namedview1"
     pagecolor="#ffffff"
     bordercolor="#000000"
     borderopacity="0.25"
     inkscape:showpageshadow="2"
     inkscape:pageopacity="0.0"
     inkscape:pagecheckerboard="0"
     inkscape:deskcolor="#d1d1d1">
    <inkscape:page
       x="0"
       y="0"
       inkscape:label="1"
       id="page1"
       width="682.22668"
       height="75.58667"
       margin="0"
       bleed="0" />
  </sodipodi:namedview>
  <g
     id="g1"
     inkscape:groupmode="layer"
     inkscape:label="1">
    <g
       id="group-R5">
      <path
         id="path2"
         d="m 488.441,484.203 -55.707,55.676 c -17.492,17.508 -39.777,27.051 -63.629,27.051 H 216.367 V 458.742 h 137.629 c 4.774,0 9.539,-2.398 12.723,-5.562 l 35.023,-35.012 c 3.164,-3.176 4.754,-7.957 4.754,-12.723 V 163.609 c 0,-4.777 -1.59,-8.75 -4.754,-12.734 l -35.023,-34.191 c -3.184,-3.993 -7.949,-5.575 -12.723,-5.575 H 216.367 V 458.742 H 108.184 V 56.2031 c 0,-4.7617 1.593,-9.5273 5.566,-12.7226 l 35,-34.98831 c 3.188,-3.9961 7.941,-5.57813 12.723,-5.57813 h 207.632 c 23.872,0 46.653,9.02344 63.657,26.24224 l 55.679,56.5039 c 16.579,16.8048 26.247,39.7538 26.247,63.6208 v 271.27 c 0,23.867 -9.551,46.945 -26.247,63.652 z M 2656.25,111.02 H 2548.07 V 2.83594 h 108.18 z M 2439.89,566.93 V 338.617 H 2246.58 V 566.93 H 2138.39 V 2.91406 h 108.19 V 230.426 h 193.31 V 111.02 h 108.18 v 455.91 z m -2331.706,0 H 0 V 458.742 H 108.184 Z M 1932.35,338.617 V 566.93 h 108.19 V 2.91406 H 1932.35 V 230.426 H 1739.03 V 2.91406 H 1630.84 V 566.93 h 108.19 V 338.617 Z M 1397.27,2.85547 h -158.79 c -24.1,0 -46.75,9.36723 -63.79,26.40623 l -63.39,63.418 76.5,76.4843 52.85,-52.84 c 3.38,-3.371 7.99,-5.285 12.77,-5.285 h 128.91 c 4.79,0 9.38,1.914 12.77,5.285 l 34.78,34.793 c 3.39,3.399 5.28,7.981 5.28,12.774 v 18.722 c 0,8.075 -5.44,15.242 -13.2,17.403 l -234.11,65.195 c -26.42,7.332 -50.1,23.426 -66.68,45.254 -16.57,21.836 -25.72,48.953 -25.72,76.363 v 33.676 c 0,23.902 9.51,46.855 26.42,63.769 l 55.91,55.926 c 17.04,17.024 39.68,26.387 63.78,26.387 h 158.79 c 24.09,0 46.74,-9.363 63.76,-26.387 l 63.41,-63.437 -76.51,-76.492 -52.84,52.847 c -3.38,3.379 -7.98,5.278 -12.76,5.278 H 1256.5 c -4.81,0 -9.4,-1.899 -12.77,-5.278 l -34.8,-34.793 c -3.38,-3.386 -5.28,-7.988 -5.28,-12.754 v -18.742 c 0,-8.074 5.44,-15.223 13.22,-17.398 l 234.09,-65.176 c 26.42,-7.356 50.11,-23.418 66.68,-45.266 16.61,-21.836 25.71,-48.953 25.71,-76.375 v -33.664 c 0,-24.09 -9.36,-46.738 -26.41,-63.7771 L 1461.03,29.2617 C 1443.99,12.2227 1421.36,2.85547 1397.27,2.85547 Z M 727.098,220.895 H 859.961 L 793.129,411.012 Z M 688.914,112.691 649.93,2.91406 H 535.379 L 729.48,554.203 c 2.379,7.961 8.754,12.727 16.704,12.727 h 94.675 c 7.157,0 14.325,-4.766 16.707,-11.926 L 1051.66,2.91406 H 937.125 L 898.133,112.691 H 688.914"
         style="fill:url(#linearGradient9);fill-opacity:1;fill-rule:nonzero;stroke:none"
         transform="matrix(0.13333333,0,0,-0.13333333,0,75.586667)"
         clip-path="url(#clipPath9)" />
      <path
         id="path10"
         d="m 2902.23,455.727 c 16.39,0 22.8,1.328 29.96,6.035 10.55,6.984 16.59,21.679 16.59,40.136 0,18.86 -6.41,33.372 -17.9,40.332 -7.54,4.719 -12.82,5.665 -33.36,5.665 h -5.47 v -92.168 z m -4.16,108.937 c 21.3,0 32.05,-1.699 41.66,-6.777 17.91,-9.621 29.2,-31.106 29.2,-55.989 0,-24.863 -10.54,-45.976 -28.07,-55.585 -10.55,-6.036 -19.22,-7.352 -45.41,-7.352 h -22.81 v 125.703 h 25.43"
         style="fill:#125a9e;fill-opacity:1;fill-rule:nonzero;stroke:none"
         transform="matrix(0.13333333,0,0,-0.13333333,0,75.586667)" />
      <path
         id="path11"
         d="m 3038.03,484.379 c -26.02,-3.953 -35.07,-9.051 -35.07,-19.785 0,-7.735 6.22,-13.008 15.27,-13.008 7.74,0 14.33,3.769 17.34,9.805 1.69,3.39 2.46,8.293 2.46,16.007 z m -51.09,18.848 c 1.14,9.238 3.96,14.882 9.81,19.406 6.21,5.086 15.83,7.918 26.76,7.918 15.07,0 25.81,-5.086 29.58,-13.946 2.26,-5.097 2.84,-9.804 2.84,-21.101 v -34.875 c 0,-12.059 0.56,-16.387 2.83,-21.668 h -17.16 c -1.12,4.148 -1.5,6.219 -1.5,11.121 -4.91,-8.867 -13.38,-13.191 -25.64,-13.191 -18.85,0 -30.53,9.804 -30.53,25.632 0,12.434 7.16,21.672 20.54,26.758 8.29,3.203 13.58,4.328 33.56,7.91 v 2.454 c 0,11.503 -4.35,15.828 -15.66,15.828 -10.16,0 -15.83,-3.965 -17.52,-12.246 h -17.91"
         style="fill:#125a9e;fill-opacity:1;fill-rule:nonzero;stroke:none"
         transform="matrix(0.13333333,0,0,-0.13333333,0,75.586667)" />
      <path
         id="path12"
         d="m 3125.67,528.48 -0.19,-14.695 h -19.79 l -0.56,-39.582 c -0.19,-6.035 -0.19,-6.035 -0.19,-7.539 0,-10.359 2.26,-13.387 9.61,-13.387 4.15,0 8.48,0.946 13.19,3.028 l -0.19,-15.649 c -6.4,-2.449 -11.87,-3.59 -18.09,-3.59 -9.61,0 -16.96,3.59 -20.73,9.989 -2.07,3.781 -2.83,7.55 -2.83,16.023 0,1.899 0,2.074 0.38,11.125 l 1.13,39.582 h -13.76 l 0.19,14.695 h 14.14 l 0.55,25.637 h 17.91 l -0.37,-25.637 h 19.6"
         style="fill:#125a9e;fill-opacity:1;fill-rule:nonzero;stroke:none"
         transform="matrix(0.13333333,0,0,-0.13333333,0,75.586667)" />
      <path
         id="path13"
         d="m 3195.21,484.379 c -26.01,-3.953 -35.05,-9.051 -35.05,-19.785 0,-7.735 6.22,-13.008 15.26,-13.008 7.73,0 14.32,3.769 17.34,9.805 1.69,3.39 2.45,8.293 2.45,16.007 z m -51.07,18.848 c 1.13,9.238 3.95,14.882 9.8,19.406 6.22,5.086 15.83,7.918 26.76,7.918 15.07,0 25.82,-5.086 29.59,-13.946 2.27,-5.097 2.82,-9.804 2.82,-21.101 v -34.875 c 0,-12.059 0.57,-16.387 2.84,-21.668 h -17.15 c -1.14,4.148 -1.52,6.219 -1.52,11.121 -4.9,-8.867 -13.37,-13.191 -25.63,-13.191 -18.84,0 -30.53,9.804 -30.53,25.632 0,12.434 7.16,21.672 20.54,26.758 8.3,3.203 13.57,4.328 33.55,7.91 v 2.454 c 0,11.503 -4.33,15.828 -15.64,15.828 -10.18,0 -15.83,-3.965 -17.53,-12.246 h -17.9"
         style="fill:#125a9e;fill-opacity:1;fill-rule:nonzero;stroke:none"
         transform="matrix(0.13333333,0,0,-0.13333333,0,75.586667)" />
      <path
         id="path14"
         d="m 3347.52,529.801 c -1.13,12.812 -9.43,20.164 -22.43,20.164 -11.68,0 -20.55,-6.973 -20.55,-16.211 0,-4.52 2.45,-8.477 6.98,-11.121 3.77,-2.453 6.03,-3.391 21.49,-9.981 18.66,-7.726 24.3,-11.125 29.21,-16.593 4.9,-5.84 7.53,-13.379 7.53,-22.051 0,-22.606 -16.96,-37.305 -43.16,-37.305 -28.45,0 -44.28,14.883 -45.6,42.969 h 18.84 c 1.52,-17.149 10.74,-26.016 27.14,-26.016 13.38,0 22.8,7.168 22.8,17.16 0,5.645 -2.63,9.989 -8.1,13.758 -3.96,2.629 -6.21,3.762 -20.72,9.981 -13.76,5.851 -21.67,10.371 -26.21,14.699 -6.4,6.219 -9.6,13.953 -9.6,22.812 0,20.352 16.76,34.864 40.51,34.864 15.08,0 27.51,-5.84 34.5,-16.399 3.95,-5.652 5.45,-11.308 6.02,-20.73 h -18.65"
         style="fill:#125a9e;fill-opacity:1;fill-rule:nonzero;stroke:none"
         transform="matrix(0.13333333,0,0,-0.13333333,0,75.586667)" />
      <path
         id="path15"
         d="m 3442.89,498.891 c -1.88,11.875 -6.96,16.964 -16.77,16.964 -13.19,0 -21.49,-12.628 -21.49,-32.414 0,-19.98 8.11,-31.855 21.69,-31.855 10.54,0 15.83,5.656 17.32,18.652 h 18.11 c -1.32,-20.918 -14.9,-33.73 -35.43,-33.73 -24.5,0 -40.72,18.847 -40.72,46.933 0,28.829 16.02,47.493 40.89,47.493 19.98,0 32.23,-11.309 34.68,-32.043 h -18.28"
         style="fill:#125a9e;fill-opacity:1;fill-rule:nonzero;stroke:none"
         transform="matrix(0.13333333,0,0,-0.13333333,0,75.586667)" />
      <path
         id="path16"
         d="m 3501.33,528.48 v -89.519 h -18.84 v 89.519 z m 2.26,26.387 c 0,-6.785 -4.7,-11.504 -11.68,-11.504 -6.97,0 -11.69,4.719 -11.69,11.309 0,7.16 4.91,12.062 12.06,12.062 6.61,0 11.31,-4.902 11.31,-11.867"
         style="fill:#125a9e;fill-opacity:1;fill-rule:nonzero;stroke:none"
         transform="matrix(0.13333333,0,0,-0.13333333,0,75.586667)" />
      <path
         id="path17"
         d="m 3582.94,493.422 c -1.69,15.078 -8.48,22.617 -20.16,22.617 -11.5,0 -18.47,-7.344 -21.49,-22.617 z m -42.21,-13.75 c 0.74,-18.106 9.03,-27.899 23.74,-27.899 9.04,0 14.88,3.582 18.85,11.688 l 16.58,-1.133 c -4.9,-16.59 -17.71,-25.82 -35.99,-25.82 -25.25,0 -41.84,18.281 -41.84,46.172 0,29.023 16.4,48.254 41.27,48.254 23.56,0 38.64,-18.282 38.64,-47.317 0,-0.554 0,-2.254 -0.19,-3.945 h -61.06"
         style="fill:#125a9e;fill-opacity:1;fill-rule:nonzero;stroke:none"
         transform="matrix(0.13333333,0,0,-0.13333333,0,75.586667)" />
      <path
         id="path18"
         d="m 3637.98,528.48 c 1.33,-3.574 1.7,-6.601 1.89,-12.246 6.21,9.61 15.27,14.317 26.95,14.317 11.49,0 21.1,-5.274 25.44,-13.758 3.01,-5.84 3.58,-9.797 3.58,-26.379 v -51.453 h -18.47 v 48.426 c 0,10.937 -0.56,15.273 -2.45,19.043 -2.45,5.078 -7.35,7.726 -13.76,7.726 -7.35,0 -13.76,-3.769 -17.15,-10.176 -2.07,-3.957 -3.01,-9.238 -3.01,-17.335 v -47.684 h -18.47 v 58.23 c 0,21.868 0,22.618 -2.45,31.289 h 17.9"
         style="fill:#125a9e;fill-opacity:1;fill-rule:nonzero;stroke:none"
         transform="matrix(0.13333333,0,0,-0.13333333,0,75.586667)" />
      <path
         id="path19"
         d="m 3773.11,498.891 c -1.87,11.875 -6.96,16.964 -16.76,16.964 -13.2,0 -21.49,-12.628 -21.49,-32.414 0,-19.98 8.11,-31.855 21.68,-31.855 10.55,0 15.83,5.656 17.34,18.652 h 18.09 c -1.32,-20.918 -14.89,-33.73 -35.43,-33.73 -24.5,0 -40.71,18.847 -40.71,46.933 0,28.829 16.01,47.493 40.9,47.493 19.97,0 32.21,-11.309 34.67,-32.043 h -18.29"
         style="fill:#125a9e;fill-opacity:1;fill-rule:nonzero;stroke:none"
         transform="matrix(0.13333333,0,0,-0.13333333,0,75.586667)" />
      <path
         id="path20"
         d="m 3867.56,493.422 c -1.7,15.078 -8.48,22.617 -20.16,22.617 -11.5,0 -18.48,-7.344 -21.49,-22.617 z m -42.21,-13.75 c 0.74,-18.106 9.03,-27.899 23.74,-27.899 9.04,0 14.88,3.582 18.85,11.688 l 16.58,-1.133 c -4.9,-16.59 -17.71,-25.82 -36,-25.82 -25.25,0 -41.83,18.281 -41.83,46.172 0,29.023 16.38,48.254 41.27,48.254 23.56,0 38.63,-18.282 38.63,-47.317 0,-0.554 0,-2.254 -0.18,-3.945 h -61.06"
         style="fill:#125a9e;fill-opacity:1;fill-rule:nonzero;stroke:none"
         transform="matrix(0.13333333,0,0,-0.13333333,0,75.586667)" />
      <path
         id="path21"
         d="m 3973.11,528.48 v -89.519 h -18.84 v 89.519 z m 2.27,26.387 c 0,-6.785 -4.71,-11.504 -11.69,-11.504 -6.97,0 -11.68,4.719 -11.68,11.309 0,7.16 4.9,12.062 12.06,12.062 6.6,0 11.31,-4.902 11.31,-11.867"
         style="fill:#125a9e;fill-opacity:1;fill-rule:nonzero;stroke:none"
         transform="matrix(0.13333333,0,0,-0.13333333,0,75.586667)" />
      <path
         id="path22"
         d="m 4015.33,528.48 c 1.33,-3.574 1.7,-6.601 1.89,-12.246 6.22,9.61 15.27,14.317 26.95,14.317 11.49,0 21.1,-5.274 25.45,-13.758 3.01,-5.84 3.57,-9.797 3.57,-26.379 v -51.453 h -18.46 v 48.426 c 0,10.937 -0.57,15.273 -2.46,19.043 -2.45,5.078 -7.35,7.726 -13.76,7.726 -7.35,0 -13.76,-3.769 -17.14,-10.176 -2.07,-3.957 -3.01,-9.238 -3.01,-17.335 v -47.684 h -18.48 v 58.23 c 0,21.868 0,22.618 -2.45,31.289 h 17.9"
         style="fill:#125a9e;fill-opacity:1;fill-rule:nonzero;stroke:none"
         transform="matrix(0.13333333,0,0,-0.13333333,0,75.586667)" />
      <path
         id="path23"
         d="m 4222.28,512.652 v 52.012 h 19.42 V 438.961 h -19.42 v 57.676 h -54.27 v -57.676 h -19.41 v 125.703 h 19.41 v -52.012 h 54.27"
         style="fill:#125a9e;fill-opacity:1;fill-rule:nonzero;stroke:none"
         transform="matrix(0.13333333,0,0,-0.13333333,0,75.586667)" />
      <path
         id="path24"
         d="m 4319.55,484.379 c -26.02,-3.953 -35.06,-9.051 -35.06,-19.785 0,-7.735 6.22,-13.008 15.26,-13.008 7.74,0 14.33,3.769 17.35,9.805 1.69,3.39 2.45,8.293 2.45,16.007 z m -51.07,18.848 c 1.13,9.238 3.95,14.882 9.8,19.406 6.21,5.086 15.83,7.918 26.76,7.918 15.07,0 25.82,-5.086 29.58,-13.946 2.27,-5.097 2.83,-9.804 2.83,-21.101 v -34.875 c 0,-12.059 0.57,-16.387 2.83,-21.668 h -17.15 c -1.13,4.148 -1.51,6.219 -1.51,11.121 -4.9,-8.867 -13.38,-13.191 -25.63,-13.191 -18.84,0 -30.53,9.804 -30.53,25.632 0,12.434 7.16,21.672 20.53,26.758 8.3,3.203 13.58,4.328 33.56,7.91 v 2.454 c 0,11.503 -4.34,15.828 -15.64,15.828 -10.18,0 -15.84,-3.965 -17.53,-12.246 h -17.9"
         style="fill:#125a9e;fill-opacity:1;fill-rule:nonzero;stroke:none"
         transform="matrix(0.13333333,0,0,-0.13333333,0,75.586667)" />
      <path
         id="path25"
         d="m 4379.5,528.48 c 1.32,-3.398 1.88,-7.167 1.88,-12.07 6.22,9.805 14.7,14.141 26.57,14.141 12.25,0 20.36,-4.707 25.26,-15.078 7.16,10.371 15.83,15.078 28.26,15.078 11.51,0 20.17,-4.52 24.13,-12.442 2.83,-5.644 3.21,-8.093 3.21,-25.82 v -53.328 h -18.48 v 53.144 c 0,9.618 -0.56,13.008 -2.45,16.016 -2.45,3.965 -7.16,6.035 -13.38,6.035 -12.62,0 -18.84,-7.726 -18.84,-23.554 v -51.641 h -18.47 v 51.074 c 0,11.688 -0.37,14.141 -2.08,17.332 -2.26,4.336 -7.35,6.789 -13.56,6.789 -7.92,0 -14.33,-3.769 -16.97,-10.176 -1.69,-3.769 -2.26,-7.726 -2.26,-14.14 v -50.879 h -18.47 v 65.215 c 0,15.449 -0.18,17.703 -2.26,24.304 h 17.91"
         style="fill:#125a9e;fill-opacity:1;fill-rule:nonzero;stroke:none"
         transform="matrix(0.13333333,0,0,-0.13333333,0,75.586667)" />
      <path
         id="path26"
         d="m 4533.11,483.246 c 0,-18.652 8.1,-30.715 20.74,-30.715 12.99,0 21.1,12.25 21.1,31.469 0,18.855 -7.72,30.723 -20.17,30.723 -13.37,0 -21.67,-12.063 -21.67,-31.477 z m 0.19,82.168 v -49.18 c 7.16,10.168 14.33,14.317 25.06,14.317 20.93,0 35.62,-19.403 35.62,-46.738 0,-27.704 -15.45,-46.922 -37.69,-46.922 -11.12,0 -18.85,4.519 -24.31,14.312 -0.18,-5.086 -0.57,-8.473 -1.7,-12.242 h -16.39 c 0.94,6.777 0.94,8.855 0.94,24.305 v 102.148 h 18.47"
         style="fill:#125a9e;fill-opacity:1;fill-rule:nonzero;stroke:none"
         transform="matrix(0.13333333,0,0,-0.13333333,0,75.586667)" />
      <path
         id="path27"
         d="m 4632.82,528.48 v -52.773 c 0,-8.289 1.13,-13.562 3.39,-16.59 2.83,-3.762 7.73,-5.84 13.39,-5.84 7.34,0 13.19,3.399 16.58,9.618 2.07,3.769 3.02,8.664 3.02,16.398 v 49.187 h 18.46 v -62.011 c 0,-20.156 0,-20.156 2.27,-27.508 h -17.71 c -0.94,2.637 -1.7,6.777 -1.9,11.121 -6.02,-9.238 -13.18,-13.191 -24.5,-13.191 -12.06,0 -22.23,5.269 -27.32,14.312 -2.83,5.102 -4.15,12.445 -4.15,23.938 v 53.339 h 18.47"
         style="fill:#125a9e;fill-opacity:1;fill-rule:nonzero;stroke:none"
         transform="matrix(0.13333333,0,0,-0.13333333,0,75.586667)" />
      <path
         id="path28"
         d="m 4730.85,528.48 c 0.74,-4.335 1.32,-9.05 1.32,-13.757 0,-1.321 0,-2.832 -0.2,-5.09 6.59,14.316 14.33,20.918 24.5,20.918 2.65,0 5.09,-0.567 8.87,-1.883 v -18.652 c -5.1,2.82 -8.67,3.945 -13.02,3.945 -7.16,0 -12.81,-4.328 -16.21,-12.238 -2.25,-5.086 -3.19,-11.883 -3.19,-21.875 v -40.887 h -18.66 v 60.488 c 0,19.414 -0.19,21.114 -1.14,29.031 h 17.73"
         style="fill:#125a9e;fill-opacity:1;fill-rule:nonzero;stroke:none"
         transform="matrix(0.13333333,0,0,-0.13333333,0,75.586667)" />
      <path
         id="path29"
         d="m 4796.26,499.086 c 0,-9.434 6.8,-15.645 16.96,-15.645 10.56,0 17.35,6.211 17.35,15.832 0,9.61 -6.98,16.582 -16.78,16.582 -10.55,0 -17.53,-6.789 -17.53,-16.769 z m -8.48,-70.676 c 0,-8.297 10.37,-13.387 26.76,-13.387 15.08,0 24.32,5.09 24.32,13.196 0,8.484 -9.61,13.191 -26.77,13.191 -15.26,0 -24.31,-4.902 -24.31,-13 z m 71.24,86.508 h -18.28 c 3.58,-3.586 6.04,-10.938 6.04,-17.91 0,-10.176 -4.72,-18.469 -12.83,-22.238 -6.22,-3.016 -8.29,-3.399 -26.19,-6.024 -5.47,-0.762 -9.42,-3.594 -9.42,-6.418 0,-1.699 0.94,-2.832 3.01,-3.574 1.89,-0.762 1.89,-0.762 15.84,-2.266 17.33,-1.699 22.61,-2.832 28.27,-6.023 7.16,-3.969 11.31,-11.692 11.31,-20.735 0,-18.105 -15.83,-28.847 -42.6,-28.847 -26.01,0 -42.6,10.187 -42.6,26.015 0,10.547 5.66,16.965 18.47,21.485 -6.97,2.637 -9.8,5.84 -9.8,10.558 0,6.036 4.34,9.981 15.83,14.317 -11.3,5.281 -16.39,13.191 -16.39,25.633 0,19.035 13.76,31.281 35.24,31.281 5.28,0 9.42,-0.559 15.65,-2.453 l 28.45,0.761 v -13.562"
         style="fill:#125a9e;fill-opacity:1;fill-rule:nonzero;stroke:none"
         transform="matrix(0.13333333,0,0,-0.13333333,0,75.586667)" />
      <path
         id="path30"
         d="m 3926.76,284.406 v -52.019 c -13.39,-9.422 -27.91,-13.938 -44.1,-13.938 -34.69,0 -56.18,24.867 -56.18,65.199 0,39.395 21.49,65.028 54.28,65.028 15.27,0 28.27,-5.84 36.01,-15.828 4.89,-6.606 7.15,-13.391 8.28,-24.317 h -17.34 c -2.83,15.449 -11.49,23.184 -26.57,23.184 -21.48,0 -34.31,-18.098 -34.31,-48.067 0,-30.531 13.2,-48.242 35.83,-48.242 9.22,0 19.02,2.821 27.5,8.106 v 25.625 h -25.43 v 15.269 h 42.03"
         style="fill:#125a9e;fill-opacity:1;fill-rule:nonzero;stroke:none"
         transform="matrix(0.13333333,0,0,-0.13333333,0,75.586667)" />
      <path
         id="path31"
         d="m 3967.28,310.219 c 0.76,-4.324 1.32,-9.043 1.32,-13.75 0,-1.317 0,-2.832 -0.19,-5.086 6.6,14.316 14.33,20.918 24.5,20.918 2.65,0 5.09,-0.567 8.87,-1.887 v -18.652 c -5.1,2.824 -8.68,3.945 -13.01,3.945 -7.16,0 -12.82,-4.324 -16.21,-12.246 -2.26,-5.09 -3.2,-11.875 -3.2,-21.863 v -40.891 h -18.66 v 60.488 c 0,19.414 -0.19,21.114 -1.13,29.024 h 17.71"
         style="fill:#125a9e;fill-opacity:1;fill-rule:nonzero;stroke:none"
         transform="matrix(0.13333333,0,0,-0.13333333,0,75.586667)" />
      <path
         id="path32"
         d="m 4066.42,266.129 c -26.01,-3.957 -35.04,-9.055 -35.04,-19.785 0,-7.735 6.22,-13.02 15.25,-13.02 7.73,0 14.34,3.77 17.34,9.805 1.7,3.398 2.45,8.301 2.45,16.016 z m -51.07,18.848 c 1.13,9.238 3.97,14.882 9.81,19.402 6.22,5.09 15.83,7.922 26.75,7.922 15.08,0 25.82,-5.09 29.59,-13.946 2.27,-5.097 2.82,-9.804 2.82,-21.113 v -34.863 c 0,-12.063 0.57,-16.399 2.84,-21.672 h -17.15 c -1.13,4.141 -1.52,6.223 -1.52,11.121 -4.9,-8.863 -13.37,-13.199 -25.63,-13.199 -18.84,0 -30.53,9.805 -30.53,25.633 0,12.441 7.17,21.679 20.55,26.769 8.29,3.203 13.57,4.324 33.54,7.91 v 2.45 c 0,11.504 -4.32,15.832 -15.64,15.832 -10.18,0 -15.83,-3.965 -17.53,-12.246 h -17.9"
         style="fill:#125a9e;fill-opacity:1;fill-rule:nonzero;stroke:none"
         transform="matrix(0.13333333,0,0,-0.13333333,0,75.586667)" />
      <path
         id="path33"
         d="m 4123.92,264.984 c 0,-19.023 7.92,-30.703 20.74,-30.703 13,0 21.1,12.063 21.1,31.282 0,19.218 -7.92,31.101 -20.54,31.101 -13.2,0 -21.3,-11.883 -21.3,-31.68 z m 59.94,-16.765 c 0,-15.637 0.38,-21.485 1.7,-27.512 h -17.53 c -0.94,3.77 -1.14,5.84 -1.14,8.672 0,1.133 0,2.07 0.2,3.945 -6.04,-10.359 -13.39,-14.695 -25.27,-14.695 -22.23,0 -36.93,18.281 -36.93,45.992 0,27.895 15.07,47.68 36.38,47.68 10.93,0 17.33,-3.574 24.12,-13.196 v 48.055 h 18.47 v -98.941"
         style="fill:#125a9e;fill-opacity:1;fill-rule:nonzero;stroke:none"
         transform="matrix(0.13333333,0,0,-0.13333333,0,75.586667)" />
      <path
         id="path34"
         d="m 4228.34,310.219 v -52.766 c 0,-8.297 1.14,-13.562 3.4,-16.59 2.82,-3.769 7.72,-5.84 13.39,-5.84 7.34,0 13.18,3.399 16.57,9.622 2.07,3.765 3.03,8.66 3.03,16.394 v 49.18 h 18.46 v -62 c 0,-20.156 0,-20.156 2.27,-27.512 h -17.73 c -0.93,2.637 -1.69,6.777 -1.88,11.121 -6.03,-9.234 -13.19,-13.199 -24.5,-13.199 -12.06,0 -22.24,5.281 -27.33,14.324 -2.82,5.098 -4.14,12.442 -4.14,23.938 v 53.328 h 18.46"
         style="fill:#125a9e;fill-opacity:1;fill-rule:nonzero;stroke:none"
         transform="matrix(0.13333333,0,0,-0.13333333,0,75.586667)" />
      <path
         id="path35"
         d="m 4358.96,266.129 c -26,-3.957 -35.05,-9.055 -35.05,-19.785 0,-7.735 6.23,-13.02 15.27,-13.02 7.72,0 14.32,3.77 17.33,9.805 1.7,3.398 2.45,8.301 2.45,16.016 z m -51.07,18.848 c 1.13,9.238 3.96,14.882 9.8,19.402 6.22,5.09 15.83,7.922 26.76,7.922 15.08,0 25.82,-5.09 29.59,-13.946 2.27,-5.097 2.83,-9.804 2.83,-21.113 v -34.863 c 0,-12.063 0.56,-16.399 2.83,-21.672 h -17.14 c -1.15,4.141 -1.52,6.223 -1.52,11.121 -4.9,-8.863 -13.38,-13.199 -25.63,-13.199 -18.85,0 -30.53,9.805 -30.53,25.633 0,12.441 7.16,21.679 20.54,26.769 8.29,3.203 13.57,4.324 33.54,7.91 v 2.45 c 0,11.504 -4.32,15.832 -15.64,15.832 -10.17,0 -15.83,-3.965 -17.52,-12.246 h -17.91"
         style="fill:#125a9e;fill-opacity:1;fill-rule:nonzero;stroke:none"
         transform="matrix(0.13333333,0,0,-0.13333333,0,75.586667)" />
      <path
         id="path36"
         d="m 4446.62,310.219 -0.19,-14.696 h -19.79 l -0.57,-39.574 c -0.17,-6.031 -0.17,-6.031 -0.17,-7.539 0,-10.359 2.25,-13.387 9.61,-13.387 4.14,0 8.47,0.95 13.18,3.028 l -0.19,-15.653 c -6.4,-2.453 -11.87,-3.585 -18.09,-3.585 -9.61,0 -16.95,3.585 -20.72,9.992 -2.07,3.777 -2.84,7.547 -2.84,16.023 0,1.887 0,2.07 0.39,11.121 l 1.12,39.574 h -13.76 l 0.19,14.696 h 14.14 l 0.56,25.636 h 17.9 l -0.37,-25.636 h 19.6"
         style="fill:#125a9e;fill-opacity:1;fill-rule:nonzero;stroke:none"
         transform="matrix(0.13333333,0,0,-0.13333333,0,75.586667)" />
      <path
         id="path37"
         d="m 4519.93,275.172 c -1.7,15.074 -8.48,22.613 -20.17,22.613 -11.49,0 -18.47,-7.34 -21.48,-22.613 z m -42.22,-13.762 c 0.76,-18.094 9.05,-27.89 23.75,-27.89 9.04,0 14.89,3.574 18.84,11.691 l 16.59,-1.137 c -4.9,-16.59 -17.72,-25.816 -36,-25.816 -25.25,0 -41.84,18.277 -41.84,46.172 0,29.019 16.4,48.242 41.28,48.242 23.56,0 38.63,-18.281 38.63,-47.305 0,-0.558 0,-2.258 -0.19,-3.957 h -61.06"
         style="fill:#125a9e;fill-opacity:1;fill-rule:nonzero;stroke:none"
         transform="matrix(0.13333333,0,0,-0.13333333,0,75.586667)" />
      <path
         id="path38"
         d="m 4667.52,311.535 c -1.13,12.824 -9.44,20.18 -22.43,20.18 -11.68,0 -20.55,-6.973 -20.55,-16.211 0,-4.524 2.45,-8.477 6.97,-11.125 3.77,-2.449 6.03,-3.387 21.5,-9.988 18.64,-7.715 24.3,-11.125 29.21,-16.582 4.9,-5.84 7.52,-13.379 7.52,-22.051 0,-22.61 -16.96,-37.309 -43.15,-37.309 -28.46,0 -44.29,14.875 -45.6,42.961 h 18.84 c 1.52,-17.148 10.74,-26.004 27.14,-26.004 13.38,0 22.8,7.168 22.8,17.157 0,5.644 -2.63,9.98 -8.11,13.75 -3.95,2.636 -6.2,3.769 -20.72,9.992 -13.75,5.84 -21.67,10.371 -26.2,14.695 -6.41,6.223 -9.6,13.953 -9.6,22.805 0,20.359 16.76,34.871 40.51,34.871 15.07,0 27.51,-5.84 34.49,-16.406 3.95,-5.645 5.46,-11.297 6.02,-20.735 h -18.64"
         style="fill:#125a9e;fill-opacity:1;fill-rule:nonzero;stroke:none"
         transform="matrix(0.13333333,0,0,-0.13333333,0,75.586667)" />
      <path
         id="path39"
         d="m 4762.89,280.641 c -1.89,11.875 -6.97,16.961 -16.78,16.961 -13.19,0 -21.48,-12.625 -21.48,-32.422 0,-19.969 8.1,-31.856 21.68,-31.856 10.54,0 15.83,5.664 17.33,18.664 h 18.1 c -1.32,-20.918 -14.9,-33.73 -35.43,-33.73 -24.5,0 -40.72,18.836 -40.72,46.922 0,28.84 16.02,47.492 40.9,47.492 19.98,0 32.23,-11.301 34.68,-32.031 h -18.28"
         style="fill:#125a9e;fill-opacity:1;fill-rule:nonzero;stroke:none"
         transform="matrix(0.13333333,0,0,-0.13333333,0,75.586667)" />
      <path
         id="path40"
         d="m 4820.04,347.16 v -47.105 c 6.58,8.289 15.07,12.246 25.82,12.246 11.1,0 20.91,-4.903 25.44,-12.824 3.2,-5.457 4.14,-11.309 4.14,-27.317 v -51.453 h -18.48 v 48.43 c 0,10.183 -0.74,15.086 -2.63,18.855 -2.63,5.078 -7.73,7.91 -14.14,7.91 -7.35,0 -13.76,-3.964 -17.14,-10.359 -2.07,-4.152 -3.01,-9.434 -3.01,-17.344 v -47.492 h -18.48 V 347.16 h 18.48"
         style="fill:#125a9e;fill-opacity:1;fill-rule:nonzero;stroke:none"
         transform="matrix(0.13333333,0,0,-0.13333333,0,75.586667)" />
      <path
         id="path41"
         d="m 4914.46,265.746 c 0,-19.598 9.05,-32.422 22.81,-32.422 13.38,0 22.62,13.02 22.62,32.043 0,19.039 -9.24,32.235 -22.62,32.235 -13.37,0 -22.81,-13.008 -22.81,-31.856 z m 64.46,-0.379 c 0,-27.512 -17.33,-47.109 -41.65,-47.109 -24.68,0 -41.83,19.597 -41.83,47.871 0,26.766 17.7,46.543 41.83,46.543 24.32,0 41.65,-19.777 41.65,-47.305"
         style="fill:#125a9e;fill-opacity:1;fill-rule:nonzero;stroke:none"
         transform="matrix(0.13333333,0,0,-0.13333333,0,75.586667)" />
      <path
         id="path42"
         d="m 5012.67,265.746 c 0,-19.598 9.06,-32.422 22.81,-32.422 13.38,0 22.62,13.02 22.62,32.043 0,19.039 -9.24,32.235 -22.62,32.235 -13.38,0 -22.81,-13.008 -22.81,-31.856 z m 64.46,-0.379 c 0,-27.512 -17.34,-47.109 -41.65,-47.109 -24.69,0 -41.83,19.597 -41.83,47.871 0,26.766 17.71,46.543 41.83,46.543 24.31,0 41.65,-19.777 41.65,-47.305"
         style="fill:#125a9e;fill-opacity:1;fill-rule:nonzero;stroke:none"
         transform="matrix(0.13333333,0,0,-0.13333333,0,75.586667)" />
      <path
         id="path43"
         d="M 5116.72,347.16 V 220.707 h -18.85 V 347.16 h 18.85"
         style="fill:#125a9e;fill-opacity:1;fill-rule:nonzero;stroke:none"
         transform="matrix(0.13333333,0,0,-0.13333333,0,75.586667)" />
      <path
         id="path44"
         d="M 2922.25,91.9688 V 77.2695 h -21.48 V 2.45313 h -18.85 V 77.2695 h -12.24 v 14.6993 h 12.24 v 5.664 c 0,12.4302 1.14,18.2772 4.34,23.3592 4.33,6.602 12.06,10.371 21.48,10.371 5.84,0 11.51,-1.133 17.53,-3.39 v -15.645 c -6.22,2.266 -9.99,3.008 -14.14,3.008 -4.9,0 -8.29,-2.441 -9.61,-6.961 -0.55,-2.082 -0.94,-6.035 -0.94,-12.4414 v -3.9648 h 21.67"
         style="fill:#125a9e;fill-opacity:1;fill-rule:nonzero;stroke:none"
         transform="matrix(0.13333333,0,0,-0.13333333,0,75.586667)" />
      <path
         id="path45"
         d="m 2949.39,47.4922 c 0,-19.5977 9.06,-32.418 22.81,-32.418 13.37,0 22.61,13.0156 22.61,32.0391 0,19.0351 -9.24,32.2383 -22.61,32.2383 -13.38,0 -22.81,-13.0078 -22.81,-31.8594 z m 64.46,-0.3789 c 0,-27.5195 -17.34,-47.10939375 -41.65,-47.10939375 -24.68,0 -41.84,19.58989375 -41.84,47.86329375 0,26.7656 17.71,46.5508 41.84,46.5508 24.31,0 41.65,-19.7852 41.65,-47.3047"
         style="fill:#125a9e;fill-opacity:1;fill-rule:nonzero;stroke:none"
         transform="matrix(0.13333333,0,0,-0.13333333,0,75.586667)" />
      <path
         id="path46"
         d="m 3050.99,91.9688 c 0.75,-4.3282 1.32,-9.043 1.32,-13.7618 0,-1.3086 0,-2.8203 -0.19,-5.0781 6.6,14.3164 14.32,20.918 24.5,20.918 2.64,0 5.09,-0.5664 8.86,-1.8867 V 73.5 c -5.09,2.832 -8.67,3.9531 -13.01,3.9531 -7.16,0 -12.81,-4.3242 -16.2,-12.2422 -2.27,-5.0898 -3.21,-11.875 -3.21,-21.8671 V 2.45313 h -18.67 V 62.9453 c 0,19.4141 -0.17,21.1133 -1.12,29.0235 h 17.72"
         style="fill:#125a9e;fill-opacity:1;fill-rule:nonzero;stroke:none"
         transform="matrix(0.13333333,0,0,-0.13333333,0,75.586667)" />
      <path
         id="path47"
         d="m 3191.6,91.9688 -0.19,-14.6993 h -19.79 l -0.56,-39.5703 c -0.18,-6.0351 -0.18,-6.0351 -0.18,-7.539 0,-10.3711 2.25,-13.3868 9.61,-13.3868 4.14,0 8.47,0.9454 13.18,3.0157 l -0.18,-15.64457 c -6.41,-2.44922 -11.88,-3.58203 -18.1,-3.58203 -9.61,0 -16.95,3.58203 -20.72,9.9883 -2.07,3.7773 -2.84,7.5508 -2.84,16.0234 0,1.8867 0,2.0742 0.39,11.125 l 1.12,39.5703 h -13.76 l 0.19,14.6993 h 14.14 l 0.56,25.6332 h 17.9 L 3172,91.9688 h 19.6"
         style="fill:#125a9e;fill-opacity:1;fill-rule:nonzero;stroke:none"
         transform="matrix(0.13333333,0,0,-0.13333333,0,75.586667)" />
      <path
         id="path48"
         d="M 3228.53,128.91 V 81.8008 c 6.6,8.293 15.08,12.2461 25.82,12.2461 11.12,0 20.92,-4.9024 25.44,-12.8203 3.22,-5.4688 4.15,-11.3086 4.15,-27.3243 V 2.45313 h -18.47 V 50.8828 c 0,10.1875 -0.74,15.0899 -2.64,18.8477 -2.64,5.0898 -7.72,7.9218 -14.13,7.9218 -7.35,0 -13.76,-3.9648 -17.15,-10.371 -2.07,-4.1407 -3.02,-9.4258 -3.02,-17.336 V 2.45313 h -18.46 V 128.91 h 18.46"
         style="fill:#125a9e;fill-opacity:1;fill-rule:nonzero;stroke:none"
         transform="matrix(0.13333333,0,0,-0.13333333,0,75.586667)" />
      <path
         id="path49"
         d="m 3364.81,56.918 c -1.7,15.0781 -8.47,22.6093 -20.16,22.6093 -11.5,0 -18.48,-7.3437 -21.49,-22.6093 z M 3322.6,43.1602 c 0.75,-18.0977 9.04,-27.8907 23.75,-27.8907 9.04,0 14.88,3.5743 18.83,11.6797 l 16.6,-1.1328 c -4.91,-16.58202 -17.73,-25.81249375 -36.01,-25.81249375 -25.24,0 -41.83,18.28129375 -41.83,46.17189375 0,29.0234 16.39,48.2422 41.27,48.2422 23.57,0 38.64,-18.2813 38.64,-47.3047 0,-0.5664 0,-2.2539 -0.2,-3.9531 h -61.05"
         style="fill:#125a9e;fill-opacity:1;fill-rule:nonzero;stroke:none"
         transform="matrix(0.13333333,0,0,-0.13333333,0,75.586667)" />
      <path
         id="path50"
         d="m 3512.41,93.2852 c -1.13,12.8238 -9.42,20.1758 -22.43,20.1758 -11.68,0 -20.55,-6.981 -20.55,-16.211 0,-4.5195 2.45,-8.4766 6.98,-11.1211 3.76,-2.4531 6.02,-3.3906 21.49,-9.9922 18.64,-7.7148 24.31,-11.1211 29.21,-16.582 4.9,-5.8399 7.54,-13.3789 7.54,-22.0508 0,-22.6172 -16.97,-37.312494 -43.17,-37.312494 -28.45,0 -44.28,14.882794 -45.6,42.968794 h 18.85 c 1.51,-17.1485 10.74,-26.0079 27.13,-26.0079 13.38,0 22.81,7.168 22.81,17.1485 0,5.6523 -2.64,9.9922 -8.11,13.7617 -3.95,2.6367 -6.21,3.7656 -20.72,9.9883 -13.76,5.8398 -21.68,10.3711 -26.2,14.6992 -6.42,6.2188 -9.61,13.9531 -9.61,22.8008 0,20.3592 16.77,34.8752 40.52,34.8752 15.06,0 27.51,-5.852 34.49,-16.406 3.94,-5.645 5.46,-11.309 6.02,-20.7348 h -18.65"
         style="fill:#125a9e;fill-opacity:1;fill-rule:nonzero;stroke:none"
         transform="matrix(0.13333333,0,0,-0.13333333,0,75.586667)" />
      <path
         id="path51"
         d="m 3599.12,91.9688 -0.19,-14.6993 h -19.79 l -0.56,-39.5703 c -0.18,-6.0351 -0.18,-6.0351 -0.18,-7.539 0,-10.3711 2.25,-13.3868 9.61,-13.3868 4.15,0 8.47,0.9454 13.18,3.0157 L 3601,4.14453 c -6.39,-2.44922 -11.87,-3.58203 -18.09,-3.58203 -9.61,0 -16.95,3.58203 -20.72,9.9883 -2.07,3.7773 -2.84,7.5508 -2.84,16.0234 0,1.8867 0,2.0742 0.39,11.125 l 1.12,39.5703 h -13.76 l 0.19,14.6993 h 14.14 l 0.56,25.6332 h 17.91 l -0.38,-25.6332 h 19.6"
         style="fill:#125a9e;fill-opacity:1;fill-rule:nonzero;stroke:none"
         transform="matrix(0.13333333,0,0,-0.13333333,0,75.586667)" />
      <path
         id="path52"
         d="m 3635.69,91.9688 c 0.74,-4.3282 1.32,-9.043 1.32,-13.7618 0,-1.3086 0,-2.8203 -0.19,-5.0781 6.6,14.3164 14.32,20.918 24.5,20.918 2.64,0 5.09,-0.5664 8.86,-1.8867 V 73.5 c -5.09,2.832 -8.67,3.9531 -13.01,3.9531 -7.16,0 -12.82,-4.3242 -16.2,-12.2422 -2.27,-5.0898 -3.21,-11.875 -3.21,-21.8671 V 2.45313 H 3619.1 V 62.9453 c 0,19.4141 -0.19,21.1133 -1.13,29.0235 h 17.72"
         style="fill:#125a9e;fill-opacity:1;fill-rule:nonzero;stroke:none"
         transform="matrix(0.13333333,0,0,-0.13333333,0,75.586667)" />
      <path
         id="path53"
         d="M 3703.55,91.9688 V 39.1953 c 0,-8.293 1.14,-13.5547 3.39,-16.582 2.83,-3.7695 7.74,-5.8399 13.4,-5.8399 7.34,0 13.18,3.3985 16.57,9.6172 2.07,3.7696 3.02,8.6641 3.02,16.3946 v 49.1836 h 18.47 v -62.004 c 0,-20.15621 0,-20.15621 2.26,-27.51167 h -17.71 c -0.94,2.6289 -1.7,6.78125 -1.89,11.11717 -6.03,-9.23046 -13.19,-13.1953 -24.5,-13.1953 -12.06,0 -22.24,5.28516 -27.32,14.3242 -2.83,5.0899 -4.15,12.4336 -4.15,23.9375 v 53.3321 h 18.46"
         style="fill:#125a9e;fill-opacity:1;fill-rule:nonzero;stroke:none"
         transform="matrix(0.13333333,0,0,-0.13333333,0,75.586667)" />
      <path
         id="path54"
         d="m 3836.42,62.3789 c -1.87,11.8828 -6.96,16.9727 -16.76,16.9727 -13.2,0 -21.49,-12.6289 -21.49,-32.4219 0,-19.9805 8.11,-31.8555 21.68,-31.8555 10.55,0 15.83,5.6641 17.34,18.6602 h 18.09 c -1.32,-20.918 -14.89,-33.73049375 -35.43,-33.73049375 -24.5,0 -40.71,18.83989375 -40.71,46.92579375 0,28.8281 16.02,47.4883 40.9,47.4883 19.97,0 32.21,-11.3086 34.67,-32.0391 h -18.29"
         style="fill:#125a9e;fill-opacity:1;fill-rule:nonzero;stroke:none"
         transform="matrix(0.13333333,0,0,-0.13333333,0,75.586667)" />
      <path
         id="path55"
         d="m 3919.36,91.9688 -0.17,-14.6993 h -19.8 l -0.56,-39.5703 c -0.19,-6.0351 -0.19,-6.0351 -0.19,-7.539 0,-10.3711 2.27,-13.3868 9.62,-13.3868 4.14,0 8.48,0.9454 13.18,3.0157 l -0.18,-15.64457 c -6.41,-2.44922 -11.88,-3.58203 -18.1,-3.58203 -9.61,0 -16.95,3.58203 -20.72,9.9883 -2.08,3.7773 -2.83,7.5508 -2.83,16.0234 0,1.8867 0,2.0742 0.38,11.125 l 1.12,39.5703 h -13.76 l 0.2,14.6993 h 14.13 l 0.56,25.6332 h 17.91 l -0.38,-25.6332 h 19.59"
         style="fill:#125a9e;fill-opacity:1;fill-rule:nonzero;stroke:none"
         transform="matrix(0.13333333,0,0,-0.13333333,0,75.586667)" />
      <path
         id="path56"
         d="M 3957.44,91.9688 V 39.1953 c 0,-8.293 1.13,-13.5547 3.39,-16.582 2.83,-3.7695 7.73,-5.8399 13.4,-5.8399 7.34,0 13.18,3.3985 16.57,9.6172 2.07,3.7696 3.02,8.6641 3.02,16.3946 v 49.1836 h 18.46 v -62.004 c 0,-20.15621 0,-20.15621 2.27,-27.51167 h -17.72 c -0.93,2.6289 -1.69,6.78125 -1.88,11.11717 -6.04,-9.23046 -13.19,-13.1953 -24.5,-13.1953 -12.06,0 -22.24,5.28516 -27.33,14.3242 -2.83,5.0899 -4.15,12.4336 -4.15,23.9375 v 53.3321 h 18.47"
         style="fill:#125a9e;fill-opacity:1;fill-rule:nonzero;stroke:none"
         transform="matrix(0.13333333,0,0,-0.13333333,0,75.586667)" />
      <path
         id="path57"
         d="m 4055.48,91.9688 c 0.74,-4.3282 1.32,-9.043 1.32,-13.7618 0,-1.3086 0,-2.8203 -0.2,-5.0781 6.6,14.3164 14.33,20.918 24.5,20.918 2.65,0 5.09,-0.5664 8.87,-1.8867 V 73.5 c -5.1,2.832 -8.67,3.9531 -13.02,3.9531 -7.16,0 -12.81,-4.3242 -16.2,-12.2422 -2.26,-5.0898 -3.2,-11.875 -3.2,-21.8671 V 2.45313 H 4038.9 V 62.9453 c 0,19.4141 -0.2,21.1133 -1.15,29.0235 h 17.73"
         style="fill:#125a9e;fill-opacity:1;fill-rule:nonzero;stroke:none"
         transform="matrix(0.13333333,0,0,-0.13333333,0,75.586667)" />
      <path
         id="path58"
         d="m 4160.09,56.918 c -1.69,15.0781 -8.48,22.6093 -20.16,22.6093 -11.5,0 -18.48,-7.3437 -21.49,-22.6093 z m -42.21,-13.7578 c 0.74,-18.0977 9.03,-27.8907 23.74,-27.8907 9.04,0 14.88,3.5743 18.85,11.6797 l 16.58,-1.1328 c -4.9,-16.58202 -17.72,-25.81249375 -36,-25.81249375 -25.24,0 -41.83,18.28129375 -41.83,46.17189375 0,29.0234 16.39,48.2422 41.27,48.2422 23.56,0 38.64,-18.2813 38.64,-47.3047 0,-0.5664 0,-2.2539 -0.2,-3.9531 h -61.05"
         style="fill:#125a9e;fill-opacity:1;fill-rule:nonzero;stroke:none"
         transform="matrix(0.13333333,0,0,-0.13333333,0,75.586667)" />
      <path
         id="path59"
         d="m 4259.79,47.4922 c 0,-19.5977 9.05,-32.418 22.81,-32.418 13.38,0 22.61,13.0156 22.61,32.0391 0,19.0351 -9.23,32.2383 -22.61,32.2383 -13.38,0 -22.81,-13.0078 -22.81,-31.8594 z m 64.46,-0.3789 c 0,-27.5195 -17.34,-47.10939375 -41.65,-47.10939375 -24.69,0 -41.84,19.58989375 -41.84,47.86329375 0,26.7656 17.72,46.5508 41.84,46.5508 24.31,0 41.65,-19.7852 41.65,-47.3047"
         style="fill:#125a9e;fill-opacity:1;fill-rule:nonzero;stroke:none"
         transform="matrix(0.13333333,0,0,-0.13333333,0,75.586667)" />
      <path
         id="path60"
         d="M 4387.21,91.9688 V 77.2695 h -21.49 V 2.45313 h -18.85 V 77.2695 h -12.25 v 14.6993 h 12.25 v 5.664 c 0,12.4302 1.13,18.2772 4.34,23.3592 4.34,6.602 12.06,10.371 21.48,10.371 5.84,0 11.5,-1.133 17.53,-3.39 v -15.645 c -6.22,2.266 -9.99,3.008 -14.14,3.008 -4.9,0 -8.29,-2.441 -9.61,-6.961 -0.56,-2.082 -0.93,-6.035 -0.93,-12.4414 v -3.9648 h 21.67"
         style="fill:#125a9e;fill-opacity:1;fill-rule:nonzero;stroke:none"
         transform="matrix(0.13333333,0,0,-0.13333333,0,75.586667)" />
      <path
         id="path61"
         d="m 4480.15,128.16 30.9,-104.6014 31.28,104.6014 h 27.71 V 2.45313 h -17.9 V 106.676 L 4521.04,2.45313 h -19.98 L 4470.16,106.676 V 2.45313 h -17.91 V 128.16 h 27.9"
         style="fill:#125a9e;fill-opacity:1;fill-rule:nonzero;stroke:none"
         transform="matrix(0.13333333,0,0,-0.13333333,0,75.586667)" />
      <path
         id="path62"
         d="m 4648.07,47.8672 c -26.01,-3.9453 -35.05,-9.043 -35.05,-19.7774 0,-7.7343 6.22,-13.0156 15.26,-13.0156 7.72,0 14.33,3.7696 17.33,9.8047 1.7,3.3867 2.46,8.2891 2.46,16.0156 z m -51.08,18.8555 c 1.13,9.2265 3.97,14.8828 9.81,19.4062 6.22,5.0859 15.83,7.918 26.75,7.918 15.08,0 25.82,-5.086 29.59,-13.9453 2.27,-5.0977 2.84,-9.8047 2.84,-21.1133 V 24.125 c 0,-12.0586 0.55,-16.39453 2.82,-21.67187 h -17.14 c -1.14,4.14453 -1.51,6.21484 -1.51,11.11717 -4.91,-8.85936 -13.38,-13.1953 -25.64,-13.1953 -18.85,0 -30.53,9.8047 -30.53,25.6367 0,12.4375 7.16,21.668 20.54,26.7578 8.29,3.211 13.57,4.336 33.55,7.918 v 2.4531 c 0,11.4922 -4.33,15.8282 -15.65,15.8282 -10.17,0 -15.83,-3.9649 -17.52,-12.2461 h -17.91"
         style="fill:#125a9e;fill-opacity:1;fill-rule:nonzero;stroke:none"
         transform="matrix(0.13333333,0,0,-0.13333333,0,75.586667)" />
      <path
         id="path63"
         d="m 4735.73,91.9688 -0.18,-14.6993 h -19.8 l -0.57,-39.5703 c -0.17,-6.0351 -0.17,-6.0351 -0.17,-7.539 0,-10.3711 2.25,-13.3868 9.61,-13.3868 4.14,0 8.47,0.9454 13.18,3.0157 l -0.18,-15.64457 c -6.41,-2.44922 -11.88,-3.58203 -18.1,-3.58203 -9.61,0 -16.95,3.58203 -20.72,9.9883 -2.07,3.7773 -2.83,7.5508 -2.83,16.0234 0,1.8867 0,2.0742 0.38,11.125 l 1.12,39.5703 h -13.76 l 0.2,14.6993 h 14.14 l 0.55,25.6332 h 17.9 l -0.37,-25.6332 h 19.6"
         style="fill:#125a9e;fill-opacity:1;fill-rule:nonzero;stroke:none"
         transform="matrix(0.13333333,0,0,-0.13333333,0,75.586667)" />
      <path
         id="path64"
         d="m 4799.25,91.9688 -0.19,-14.6993 h -19.79 l -0.57,-39.5703 c -0.18,-6.0351 -0.18,-6.0351 -0.18,-7.539 0,-10.3711 2.26,-13.3868 9.61,-13.3868 4.14,0 8.48,0.9454 13.19,3.0157 l -0.19,-15.64457 c -6.4,-2.44922 -11.87,-3.58203 -18.09,-3.58203 -9.61,0 -16.96,3.58203 -20.73,9.9883 -2.07,3.7773 -2.83,7.5508 -2.83,16.0234 0,1.8867 0,2.0742 0.38,11.125 l 1.13,39.5703 h -13.76 l 0.19,14.6993 h 14.14 l 0.56,25.6332 h 17.9 l -0.37,-25.6332 h 19.6"
         style="fill:#125a9e;fill-opacity:1;fill-rule:nonzero;stroke:none"
         transform="matrix(0.13333333,0,0,-0.13333333,0,75.586667)" />
      <path
         id="path65"
         d="m 4872.56,56.918 c -1.7,15.0781 -8.48,22.6093 -20.17,22.6093 -11.49,0 -18.48,-7.3437 -21.48,-22.6093 z m -42.22,-13.7578 c 0.75,-18.0977 9.04,-27.8907 23.75,-27.8907 9.03,0 14.88,3.5743 18.84,11.6797 l 16.59,-1.1328 c -4.9,-16.58202 -17.72,-25.81249375 -36.01,-25.81249375 -25.24,0 -41.83,18.28129375 -41.83,46.17189375 0,29.0234 16.39,48.2422 41.28,48.2422 23.55,0 38.63,-18.2813 38.63,-47.3047 0,-0.5664 0,-2.2539 -0.19,-3.9531 h -61.06"
         style="fill:#125a9e;fill-opacity:1;fill-rule:nonzero;stroke:none"
         transform="matrix(0.13333333,0,0,-0.13333333,0,75.586667)" />
      <path
         id="path66"
         d="m 4928.54,91.9688 c 0.75,-4.3282 1.32,-9.043 1.32,-13.7618 0,-1.3086 0,-2.8203 -0.19,-5.0781 6.59,14.3164 14.32,20.918 24.5,20.918 2.65,0 5.09,-0.5664 8.86,-1.8867 V 73.5 c -5.09,2.832 -8.67,3.9531 -13.01,3.9531 -7.16,0 -12.81,-4.3242 -16.21,-12.2422 -2.26,-5.0898 -3.2,-11.875 -3.2,-21.8671 V 2.45313 h -18.66 V 62.9453 c 0,19.4141 -0.19,21.1133 -1.13,29.0235 h 17.72"
         style="fill:#125a9e;fill-opacity:1;fill-rule:nonzero;stroke:none"
         transform="matrix(0.13333333,0,0,-0.13333333,0,75.586667)" />
      <path
         id="path67"
         d="m 2935.43,291.422 v 47.558 h 22.54 V 221.508 h -22.54 v 47.394 h -40.26 v -47.394 h -22.53 V 338.98 h 22.53 v -47.558 h 40.26"
         style="fill:#125a9e;fill-opacity:1;fill-rule:nonzero;stroke:none"
         transform="matrix(0.13333333,0,0,-0.13333333,0,75.586667)" />
      <path
         id="path68"
         d="M 3005.07,316.371 V 291.48 h 43.02 v -22.531 h -43.02 v -24.902 h 51.47 v -22.539 h -62.98 c -0.99,0 -1.95,0.39 -2.65,1.105 l -7.29,7.285 c -0.69,0.704 -1.09,1.661 -1.09,2.657 v 95.32 c 0,0.996 0.4,1.965 1.09,2.656 l 7.29,7.285 c 0.7,0.704 1.66,1.106 2.65,1.106 h 62.98 v -22.551 h -51.47"
         style="fill:#125a9e;fill-opacity:1;fill-rule:nonzero;stroke:none"
         transform="matrix(0.13333333,0,0,-0.13333333,0,75.586667)" />
      <path
         id="path69"
         d="m 3148.54,244.047 v -22.539 h -56.85 c -1,0 -1.95,0.39 -2.66,1.105 l -7.28,7.285 c -0.7,0.704 -1.11,1.661 -1.11,2.657 v 106.367 h 22.55 v -94.875 h 45.35"
         style="fill:#125a9e;fill-opacity:1;fill-rule:nonzero;stroke:none"
         transform="matrix(0.13333333,0,0,-0.13333333,0,75.586667)" />
      <path
         id="path70"
         d="M 3268.25,338.922 V 221.508 h -22.54 v 64.988 l -15.84,-33.25 c -0.48,-1.004 -1.49,-1.641 -2.61,-1.641 h -17.77 c -1.11,0 -2.13,0.637 -2.6,1.641 l -15.85,33.25 v -64.988 h -22.54 v 117.414 h 22.54 l 27.34,-57.387 27.33,57.387 h 22.54"
         style="fill:#125a9e;fill-opacity:1;fill-rule:nonzero;stroke:none"
         transform="matrix(0.13333333,0,0,-0.13333333,0,75.586667)" />
      <path
         id="path71"
         d="m 3359.25,291.422 v 47.558 h 22.53 V 221.508 h -22.53 v 47.394 h -40.26 v -47.394 h -22.54 V 338.98 h 22.54 v -47.558 h 40.26"
         style="fill:#125a9e;fill-opacity:1;fill-rule:nonzero;stroke:none"
         transform="matrix(0.13333333,0,0,-0.13333333,0,75.586667)" />
      <path
         id="path72"
         d="m 3472.79,254.977 v 50.535 c 0,0.996 -0.52,1.972 -1.16,2.644 l -7.14,7.289 c -0.82,0.664 -1.81,1.172 -2.8,1.172 h -20.22 c -0.99,0 -1.82,-0.508 -2.65,-1.172 l -7.12,-7.289 c -0.83,-0.664 -1.15,-1.648 -1.15,-2.644 v -50.535 c 0,-0.989 0.32,-1.821 1.15,-2.649 l 7.12,-7.129 c 0.83,-0.82 1.66,-1.164 2.65,-1.164 h 20.22 c 0.99,0 1.98,0.344 2.8,1.164 l 7.14,7.129 c 0.65,0.828 1.16,1.66 1.16,2.649 z m 5.29,78.535 11.77,-11.606 c 3.51,-3.445 5.47,-8.277 5.47,-13.258 v -56.66 c 0,-4.961 -1.99,-9.765 -5.47,-13.254 l -11.77,-11.757 c -3.47,-3.477 -8.29,-5.469 -13.24,-5.469 h -26.35 c -4.97,0 -9.88,1.887 -13.42,5.469 l -11.6,11.757 c -3.45,3.508 -5.46,8.293 -5.46,13.254 v 56.66 c 0,4.981 1.98,9.786 5.46,13.258 l 11.6,11.606 c 3.65,3.64 8.45,5.625 13.42,5.625 h 26.35 c 4.95,0 9.66,-2.09 13.24,-5.625"
         style="fill:#125a9e;fill-opacity:1;fill-rule:nonzero;stroke:none"
         transform="matrix(0.13333333,0,0,-0.13333333,0,75.586667)" />
      <path
         id="path73"
         d="m 3588.95,244.047 v -22.539 h -56.86 c -1,0 -1.95,0.39 -2.67,1.105 l -7.28,7.285 c -0.7,0.704 -1.1,1.661 -1.1,2.657 v 106.367 h 22.55 v -94.875 h 45.36"
         style="fill:#125a9e;fill-opacity:1;fill-rule:nonzero;stroke:none"
         transform="matrix(0.13333333,0,0,-0.13333333,0,75.586667)" />
      <path
         id="path74"
         d="m 3587.36,316.441 v 22.539 h 81.51 v -22.539 h -29.49 v -94.933 h -22.54 v 94.933 h -29.48"
         style="fill:#125a9e;fill-opacity:1;fill-rule:nonzero;stroke:none"
         transform="matrix(0.13333333,0,0,-0.13333333,0,75.586667)" />
      <path
         id="path75"
         d="m 3753.16,338.922 c 1,0 1.96,-0.402 2.66,-1.106 l 7.28,-7.285 c 0.72,-0.691 1.11,-1.66 1.11,-2.656 v -5.754 l -49.4,-78.074 h 49.4 v -22.539 h -67.93 c -0.99,0 -1.95,0.39 -2.66,1.105 l -7.27,7.285 c -0.72,0.704 -1.12,1.661 -1.12,2.657 v 6.933 l 48.67,76.883 h -48.17 v 22.551 h 67.43"
         style="fill:#125a9e;fill-opacity:1;fill-rule:nonzero;stroke:none"
         transform="matrix(0.13333333,0,0,-0.13333333,0,75.586667)" />
    </g>
  </g>
</svg>
