<?xml version="1.0" encoding="UTF-8" standalone="no"?>
<!-- Created with Inkscape (http://www.inkscape.org/) -->

<svg
   width="164.81073mm"
   height="35mm"
   viewBox="0 0 164.81073 35"
   version="1.1"
   id="svg1"
   inkscape:version="1.4.2 (1:1.4.2+202505120737+ebf0e940d0)"
   sodipodi:docname="DASHH_logo_short.svg"
   xmlns:inkscape="http://www.inkscape.org/namespaces/inkscape"
   xmlns:sodipodi="http://sodipodi.sourceforge.net/DTD/sodipodi-0.dtd"
   xmlns="http://www.w3.org/2000/svg"
   xmlns:svg="http://www.w3.org/2000/svg">
  <sodipodi:namedview
     id="namedview1"
     pagecolor="#ffffff"
     bordercolor="#000000"
     borderopacity="0.25"
     inkscape:showpageshadow="2"
     inkscape:pageopacity="0.0"
     inkscape:pagecheckerboard="0"
     inkscape:deskcolor="#d1d1d1"
     inkscape:document-units="mm"
     inkscape:clip-to-page="false"
     inkscape:zoom="0.81602132"
     inkscape:cx="397.04845"
     inkscape:cy="267.14988"
     inkscape:window-width="1920"
     inkscape:window-height="1163"
     inkscape:window-x="0"
     inkscape:window-y="0"
     inkscape:window-maximized="1"
     inkscape:current-layer="layer1" />
  <defs
     id="defs1">
    <linearGradient
       x1="0"
       y1="0"
       x2="1"
       y2="0"
       gradientUnits="userSpaceOnUse"
       gradientTransform="matrix(2053.22,1185.43,1185.43,-2053.22,311.986,-301.785)"
       spreadMethod="pad"
       id="linearGradient9-8">
      <stop
         style="stop-opacity:1;stop-color:#4dc4ce"
         offset="0"
         id="stop2-8" />
      <stop
         style="stop-opacity:1;stop-color:#00adef"
         offset="0.25"
         id="stop3-4" />
      <stop
         style="stop-opacity:1;stop-color:#00adef"
         offset="0.31575922"
         id="stop4-3" />
      <stop
         style="stop-opacity:1;stop-color:#21317d"
         offset="0.5"
         id="stop5-1" />
      <stop
         style="stop-opacity:1;stop-color:#21317d"
         offset="0.52750144"
         id="stop6-4" />
      <stop
         style="stop-opacity:1;stop-color:#b41570"
         offset="0.7"
         id="stop7-9" />
      <stop
         style="stop-opacity:1;stop-color:#ed1c24"
         offset="0.948967"
         id="stop8-2" />
      <stop
         style="stop-opacity:1;stop-color:#ed1c24"
         offset="1"
         id="stop9-0" />
    </linearGradient>
    <clipPath
       clipPathUnits="userSpaceOnUse"
       id="clipPath9-05">
      <path
         d="m 488.441,484.203 -55.707,55.676 c -17.492,17.508 -39.777,27.051 -63.629,27.051 H 216.367 V 458.742 h 137.629 c 4.774,0 9.539,-2.398 12.723,-5.562 l 35.023,-35.012 c 3.164,-3.176 4.754,-7.957 4.754,-12.723 V 163.609 c 0,-4.777 -1.59,-8.75 -4.754,-12.734 l -35.023,-34.191 c -3.184,-3.993 -7.949,-5.575 -12.723,-5.575 H 216.367 V 458.742 H 108.184 V 56.2031 c 0,-4.7617 1.593,-9.5273 5.566,-12.7226 l 35,-34.98831 c 3.188,-3.9961 7.941,-5.57813 12.723,-5.57813 h 207.632 c 23.872,0 46.653,9.02344 63.657,26.24224 l 55.679,56.5039 c 16.579,16.8048 26.247,39.7538 26.247,63.6208 v 271.27 c 0,23.867 -9.551,46.945 -26.247,63.652 z M 2656.25,111.02 H 2548.07 V 2.83594 h 108.18 z M 2439.89,566.93 V 338.617 H 2246.58 V 566.93 H 2138.39 V 2.91406 h 108.19 V 230.426 h 193.31 V 111.02 h 108.18 v 455.91 z m -2331.706,0 H 0 V 458.742 H 108.184 Z M 1932.35,338.617 V 566.93 h 108.19 V 2.91406 H 1932.35 V 230.426 H 1739.03 V 2.91406 H 1630.84 V 566.93 h 108.19 V 338.617 Z M 1397.27,2.85547 h -158.79 c -24.1,0 -46.75,9.36723 -63.79,26.40623 l -63.39,63.418 76.5,76.4843 52.85,-52.84 c 3.38,-3.371 7.99,-5.285 12.77,-5.285 h 128.91 c 4.79,0 9.38,1.914 12.77,5.285 l 34.78,34.793 c 3.39,3.399 5.28,7.981 5.28,12.774 v 18.722 c 0,8.075 -5.44,15.242 -13.2,17.403 l -234.11,65.195 c -26.42,7.332 -50.1,23.426 -66.68,45.254 -16.57,21.836 -25.72,48.953 -25.72,76.363 v 33.676 c 0,23.902 9.51,46.855 26.42,63.769 l 55.91,55.926 c 17.04,17.024 39.68,26.387 63.78,26.387 h 158.79 c 24.09,0 46.74,-9.363 63.76,-26.387 l 63.41,-63.437 -76.51,-76.492 -52.84,52.847 c -3.38,3.379 -7.98,5.278 -12.76,5.278 H 1256.5 c -4.81,0 -9.4,-1.899 -12.77,-5.278 l -34.8,-34.793 c -3.38,-3.386 -5.28,-7.988 -5.28,-12.754 v -18.742 c 0,-8.074 5.44,-15.223 13.22,-17.398 l 234.09,-65.176 c 26.42,-7.356 50.11,-23.418 66.68,-45.266 16.61,-21.836 25.71,-48.953 25.71,-76.375 v -33.664 c 0,-24.09 -9.36,-46.738 -26.41,-63.7771 L 1461.03,29.2617 C 1443.99,12.2227 1421.36,2.85547 1397.27,2.85547 Z M 727.098,220.895 H 859.961 L 793.129,411.012 Z M 688.914,112.691 649.93,2.91406 H 535.379 L 729.48,554.203 c 2.379,7.961 8.754,12.727 16.704,12.727 h 94.675 c 7.157,0 14.325,-4.766 16.707,-11.926 L 1051.66,2.91406 H 937.125 L 898.133,112.691 Z"
         id="path9-0" />
    </clipPath>
  </defs>
  <g
     inkscape:label="Layer 1"
     inkscape:groupmode="layer"
     id="layer1">
    <g
       id="group-R5-2"
       transform="matrix(0.23151041,0,0,0.23151041,-11.915666,-145.25672)"
       style="stroke-width:1.14286">
      <path
         id="path2-9"
         d="m 488.441,484.203 -55.707,55.676 c -17.492,17.508 -39.777,27.051 -63.629,27.051 H 216.367 V 458.742 h 137.629 c 4.774,0 9.539,-2.398 12.723,-5.562 l 35.023,-35.012 c 3.164,-3.176 4.754,-7.957 4.754,-12.723 V 163.609 c 0,-4.777 -1.59,-8.75 -4.754,-12.734 l -35.023,-34.191 c -3.184,-3.993 -7.949,-5.575 -12.723,-5.575 H 216.367 V 458.742 H 108.184 V 56.2031 c 0,-4.7617 1.593,-9.5273 5.566,-12.7226 l 35,-34.98831 c 3.188,-3.9961 7.941,-5.57813 12.723,-5.57813 h 207.632 c 23.872,0 46.653,9.02344 63.657,26.24224 l 55.679,56.5039 c 16.579,16.8048 26.247,39.7538 26.247,63.6208 v 271.27 c 0,23.867 -9.551,46.945 -26.247,63.652 z M 2656.25,111.02 H 2548.07 V 2.83594 h 108.18 z M 2439.89,566.93 V 338.617 H 2246.58 V 566.93 H 2138.39 V 2.91406 h 108.19 V 230.426 h 193.31 V 111.02 h 108.18 v 455.91 z m -2331.706,0 H 0 V 458.742 H 108.184 Z M 1932.35,338.617 V 566.93 h 108.19 V 2.91406 H 1932.35 V 230.426 H 1739.03 V 2.91406 H 1630.84 V 566.93 h 108.19 V 338.617 Z M 1397.27,2.85547 h -158.79 c -24.1,0 -46.75,9.36723 -63.79,26.40623 l -63.39,63.418 76.5,76.4843 52.85,-52.84 c 3.38,-3.371 7.99,-5.285 12.77,-5.285 h 128.91 c 4.79,0 9.38,1.914 12.77,5.285 l 34.78,34.793 c 3.39,3.399 5.28,7.981 5.28,12.774 v 18.722 c 0,8.075 -5.44,15.242 -13.2,17.403 l -234.11,65.195 c -26.42,7.332 -50.1,23.426 -66.68,45.254 -16.57,21.836 -25.72,48.953 -25.72,76.363 v 33.676 c 0,23.902 9.51,46.855 26.42,63.769 l 55.91,55.926 c 17.04,17.024 39.68,26.387 63.78,26.387 h 158.79 c 24.09,0 46.74,-9.363 63.76,-26.387 l 63.41,-63.437 -76.51,-76.492 -52.84,52.847 c -3.38,3.379 -7.98,5.278 -12.76,5.278 H 1256.5 c -4.81,0 -9.4,-1.899 -12.77,-5.278 l -34.8,-34.793 c -3.38,-3.386 -5.28,-7.988 -5.28,-12.754 v -18.742 c 0,-8.074 5.44,-15.223 13.22,-17.398 l 234.09,-65.176 c 26.42,-7.356 50.11,-23.418 66.68,-45.266 16.61,-21.836 25.71,-48.953 25.71,-76.375 v -33.664 c 0,-24.09 -9.36,-46.738 -26.41,-63.7771 L 1461.03,29.2617 C 1443.99,12.2227 1421.36,2.85547 1397.27,2.85547 Z M 727.098,220.895 H 859.961 L 793.129,411.012 Z M 688.914,112.691 649.93,2.91406 H 535.379 L 729.48,554.203 c 2.379,7.961 8.754,12.727 16.704,12.727 h 94.675 c 7.157,0 14.325,-4.766 16.707,-11.926 L 1051.66,2.91406 H 937.125 L 898.133,112.691 H 688.914"
         style="fill:url(#linearGradient9-8);fill-opacity:1;fill-rule:nonzero;stroke:none;stroke-width:0.568571"
         transform="matrix(0.26800691,0,0,-0.26800691,51.469244,779.37176)"
         clip-path="url(#clipPath9-05)" />
    </g>
  </g>
</svg>
